<svg version="1.1" id="Layer_1" xmlns="http://www.w3.org/2000/svg" xmlns:xlink="http://www.w3.org/1999/xlink" x="0px" y="0px"
	 width="100%" viewBox="0 0 640 65" enable-background="new 0 0 640 65" xml:space="preserve">
<path fill="#0D1117" opacity="1.000000" stroke="none" 
	d="
M197.000000,1.000000 
	C197.444443,1.000000 197.888901,1.000000 198.803009,1.381801 
	C203.321457,2.179198 207.386139,2.479004 211.416199,3.031298 
	C225.585526,4.973112 239.782379,6.760341 253.893707,9.065840 
	C267.766388,11.332353 281.637878,13.756701 295.347504,16.835125 
	C314.817474,21.207006 334.000793,26.939487 353.561005,30.802607 
	C374.699677,34.977474 396.064484,38.211761 417.455505,40.840443 
	C435.021667,42.999096 452.753204,44.405582 470.442810,44.826397 
	C496.540863,45.447239 522.689148,45.686474 548.676880,42.036613 
	C559.806519,40.473499 571.180054,40.167355 582.111145,37.774994 
	C601.872131,33.450161 621.384094,27.987524 641.000000,23.000000 
	C641.000000,37.324692 641.000000,51.649384 641.000000,65.956024 
	C427.666656,65.956024 214.333328,65.956024 1.000000,65.956024 
	C1.000000,51.920464 1.000000,37.928890 1.368959,23.364201 
	C18.163677,18.528040 34.459705,13.640472 51.054916,10.193181 
	C65.148994,7.265446 79.601608,6.086555 93.860565,3.904997 
	C96.004997,3.576909 97.958290,1.999497 100.000000,1.000000 
	C102.041664,1.000000 104.083336,1.000000 106.730804,1.404286 
	C111.891075,1.539049 116.445541,1.269524 121.000000,1.000000 
	C143.020889,1.000000 165.041794,1.000000 187.681763,1.391383 
	C191.200562,1.521844 194.100281,1.260922 197.000000,1.000000 
z"/>
<path fill="#FFFFFF" opacity="1.000000" stroke="none" 
	d="
M641.000000,22.531216 
	C621.384094,27.987524 601.872131,33.450161 582.111145,37.774994 
	C571.180054,40.167355 559.806519,40.473499 548.676880,42.036613 
	C522.689148,45.686474 496.540863,45.447239 470.442810,44.826397 
	C452.753204,44.405582 435.021667,42.999096 417.455505,40.840443 
	C396.064484,38.211761 374.699677,34.977474 353.561005,30.802607 
	C334.000793,26.939487 314.817474,21.207006 295.347504,16.835125 
	C281.637878,13.756701 267.766388,11.332353 253.893707,9.065840 
	C239.782379,6.760341 225.585526,4.973112 211.416199,3.031298 
	C207.386139,2.479004 203.321457,2.179198 199.136322,1.381801 
	C346.333344,1.000000 493.666687,1.000000 641.000000,1.000000 
	C641.000000,8.075660 641.000000,15.069047 641.000000,22.531216 
z"/>
<path fill="#FFFFFF" opacity="1.000000" stroke="none" 
	d="
M99.531342,1.000000 
	C97.958290,1.999497 96.004997,3.576909 93.860565,3.904997 
	C79.601608,6.086555 65.148994,7.265446 51.054916,10.193181 
	C34.459705,13.640472 18.163677,18.528040 1.368959,22.895542 
	C1.000000,15.693281 1.000000,8.386562 1.000000,1.000000 
	C33.687519,1.000000 66.375099,1.000000 99.531342,1.000000 
z"/>
<path fill="#FFFFFF" opacity="1.000000" stroke="none" 
	d="
M120.535355,1.000000 
	C116.445541,1.269524 111.891075,1.539049 107.168304,1.404286 
	C111.356903,1.000000 115.713799,1.000000 120.535355,1.000000 
z"/>
<path fill="#FFFFFF" opacity="1.000000" stroke="none" 
	d="
M196.550171,1.000000 
	C194.100281,1.260922 191.200562,1.521844 188.150421,1.391383 
	C190.700119,1.000000 193.400223,1.000000 196.550171,1.000000 
z"/>
</svg>